<mxfile host="app.diagrams.net" modified="2024-02-20T11:24:58.618Z" agent="Mozilla/5.0 (Windows NT 10.0; Win64; x64) AppleWebKit/537.36 (KHTML, like Gecko) Chrome/121.0.0.0 Safari/537.36" etag="5NYEKmT3ZM71HcwHD07_" version="23.1.5" type="github">
  <diagram name="Page-1" id="VSBwoO1chZpmU5uCtz8e">
    <mxGraphModel dx="1044" dy="558" grid="1" gridSize="10" guides="1" tooltips="1" connect="1" arrows="1" fold="1" page="1" pageScale="1" pageWidth="850" pageHeight="1100" math="0" shadow="0">
      <root>
        <mxCell id="0" />
        <mxCell id="1" parent="0" />
        <mxCell id="Jtm_9LdOLC1XDKBe1FJw-5" value="" style="edgeStyle=orthogonalEdgeStyle;rounded=0;orthogonalLoop=1;jettySize=auto;html=1;" edge="1" parent="1" source="Jtm_9LdOLC1XDKBe1FJw-1" target="Jtm_9LdOLC1XDKBe1FJw-2">
          <mxGeometry relative="1" as="geometry" />
        </mxCell>
        <mxCell id="Jtm_9LdOLC1XDKBe1FJw-6" style="edgeStyle=orthogonalEdgeStyle;rounded=0;orthogonalLoop=1;jettySize=auto;html=1;entryX=0;entryY=0.5;entryDx=0;entryDy=0;" edge="1" parent="1" source="Jtm_9LdOLC1XDKBe1FJw-1" target="Jtm_9LdOLC1XDKBe1FJw-3">
          <mxGeometry relative="1" as="geometry" />
        </mxCell>
        <mxCell id="Jtm_9LdOLC1XDKBe1FJw-7" style="edgeStyle=orthogonalEdgeStyle;rounded=0;orthogonalLoop=1;jettySize=auto;html=1;entryX=0;entryY=0.5;entryDx=0;entryDy=0;" edge="1" parent="1" source="Jtm_9LdOLC1XDKBe1FJw-1" target="Jtm_9LdOLC1XDKBe1FJw-4">
          <mxGeometry relative="1" as="geometry" />
        </mxCell>
        <mxCell id="Jtm_9LdOLC1XDKBe1FJw-1" value="Create Wallet" style="rounded=0;whiteSpace=wrap;html=1;" vertex="1" parent="1">
          <mxGeometry x="70" y="230" width="120" height="60" as="geometry" />
        </mxCell>
        <mxCell id="Jtm_9LdOLC1XDKBe1FJw-2" value="Public key" style="rounded=1;whiteSpace=wrap;html=1;" vertex="1" parent="1">
          <mxGeometry x="260" y="240" width="120" height="40" as="geometry" />
        </mxCell>
        <mxCell id="Jtm_9LdOLC1XDKBe1FJw-3" value="address" style="rounded=1;whiteSpace=wrap;html=1;" vertex="1" parent="1">
          <mxGeometry x="260" y="170" width="120" height="40" as="geometry" />
        </mxCell>
        <mxCell id="Jtm_9LdOLC1XDKBe1FJw-4" value="Private Key" style="rounded=1;whiteSpace=wrap;html=1;" vertex="1" parent="1">
          <mxGeometry x="260" y="310" width="120" height="40" as="geometry" />
        </mxCell>
        <mxCell id="Jtm_9LdOLC1XDKBe1FJw-18" value="" style="edgeStyle=orthogonalEdgeStyle;rounded=0;orthogonalLoop=1;jettySize=auto;html=1;" edge="1" parent="1" source="Jtm_9LdOLC1XDKBe1FJw-8" target="Jtm_9LdOLC1XDKBe1FJw-17">
          <mxGeometry relative="1" as="geometry" />
        </mxCell>
        <mxCell id="Jtm_9LdOLC1XDKBe1FJw-8" value="Bryt Node" style="rounded=0;whiteSpace=wrap;html=1;" vertex="1" parent="1">
          <mxGeometry x="510" y="50" width="270" height="60" as="geometry" />
        </mxCell>
        <mxCell id="Jtm_9LdOLC1XDKBe1FJw-12" value="" style="edgeStyle=orthogonalEdgeStyle;rounded=0;orthogonalLoop=1;jettySize=auto;html=1;" edge="1" parent="1" source="Jtm_9LdOLC1XDKBe1FJw-9" target="Jtm_9LdOLC1XDKBe1FJw-10">
          <mxGeometry relative="1" as="geometry" />
        </mxCell>
        <mxCell id="Jtm_9LdOLC1XDKBe1FJw-9" value="Incoming&amp;nbsp; Transactions" style="rounded=0;whiteSpace=wrap;html=1;" vertex="1" parent="1">
          <mxGeometry x="660" y="230" width="120" height="60" as="geometry" />
        </mxCell>
        <mxCell id="Jtm_9LdOLC1XDKBe1FJw-11" style="edgeStyle=orthogonalEdgeStyle;rounded=0;orthogonalLoop=1;jettySize=auto;html=1;" edge="1" parent="1" source="Jtm_9LdOLC1XDKBe1FJw-10" target="Jtm_9LdOLC1XDKBe1FJw-2">
          <mxGeometry relative="1" as="geometry" />
        </mxCell>
        <mxCell id="Jtm_9LdOLC1XDKBe1FJw-10" value="Bryt Supply" style="rounded=1;whiteSpace=wrap;html=1;" vertex="1" parent="1">
          <mxGeometry x="510" y="230" width="120" height="60" as="geometry" />
        </mxCell>
        <mxCell id="Jtm_9LdOLC1XDKBe1FJw-19" value="" style="edgeStyle=orthogonalEdgeStyle;rounded=0;orthogonalLoop=1;jettySize=auto;html=1;" edge="1" parent="1" source="Jtm_9LdOLC1XDKBe1FJw-13" target="Jtm_9LdOLC1XDKBe1FJw-14">
          <mxGeometry relative="1" as="geometry" />
        </mxCell>
        <mxCell id="Jtm_9LdOLC1XDKBe1FJw-13" value="Node Start" style="rounded=0;whiteSpace=wrap;html=1;" vertex="1" parent="1">
          <mxGeometry x="70" y="50" width="120" height="60" as="geometry" />
        </mxCell>
        <mxCell id="Jtm_9LdOLC1XDKBe1FJw-16" style="edgeStyle=orthogonalEdgeStyle;rounded=0;orthogonalLoop=1;jettySize=auto;html=1;" edge="1" parent="1" source="Jtm_9LdOLC1XDKBe1FJw-14" target="Jtm_9LdOLC1XDKBe1FJw-8">
          <mxGeometry relative="1" as="geometry" />
        </mxCell>
        <mxCell id="Jtm_9LdOLC1XDKBe1FJw-14" value="Public Keys" style="rounded=1;whiteSpace=wrap;html=1;" vertex="1" parent="1">
          <mxGeometry x="260" y="60" width="120" height="40" as="geometry" />
        </mxCell>
        <mxCell id="Jtm_9LdOLC1XDKBe1FJw-23" style="edgeStyle=orthogonalEdgeStyle;rounded=0;orthogonalLoop=1;jettySize=auto;html=1;" edge="1" parent="1" source="Jtm_9LdOLC1XDKBe1FJw-17" target="Jtm_9LdOLC1XDKBe1FJw-20">
          <mxGeometry relative="1" as="geometry" />
        </mxCell>
        <mxCell id="Jtm_9LdOLC1XDKBe1FJw-24" style="edgeStyle=orthogonalEdgeStyle;rounded=0;orthogonalLoop=1;jettySize=auto;html=1;" edge="1" parent="1" source="Jtm_9LdOLC1XDKBe1FJw-17" target="Jtm_9LdOLC1XDKBe1FJw-21">
          <mxGeometry relative="1" as="geometry" />
        </mxCell>
        <mxCell id="Jtm_9LdOLC1XDKBe1FJw-27" style="edgeStyle=orthogonalEdgeStyle;rounded=0;orthogonalLoop=1;jettySize=auto;html=1;" edge="1" parent="1" source="Jtm_9LdOLC1XDKBe1FJw-17" target="Jtm_9LdOLC1XDKBe1FJw-22">
          <mxGeometry relative="1" as="geometry" />
        </mxCell>
        <mxCell id="Jtm_9LdOLC1XDKBe1FJw-17" value="Coinbase Supply &lt;br&gt;Mint" style="whiteSpace=wrap;html=1;rounded=0;" vertex="1" parent="1">
          <mxGeometry x="890" y="50" width="120" height="60" as="geometry" />
        </mxCell>
        <mxCell id="Jtm_9LdOLC1XDKBe1FJw-20" value="Public key" style="rounded=1;whiteSpace=wrap;html=1;" vertex="1" parent="1">
          <mxGeometry x="1040" y="10" width="120" height="40" as="geometry" />
        </mxCell>
        <mxCell id="Jtm_9LdOLC1XDKBe1FJw-21" value="Public key" style="rounded=1;whiteSpace=wrap;html=1;" vertex="1" parent="1">
          <mxGeometry x="1040" y="60" width="120" height="40" as="geometry" />
        </mxCell>
        <mxCell id="Jtm_9LdOLC1XDKBe1FJw-22" value="Public key" style="rounded=1;whiteSpace=wrap;html=1;" vertex="1" parent="1">
          <mxGeometry x="1040" y="110" width="120" height="40" as="geometry" />
        </mxCell>
      </root>
    </mxGraphModel>
  </diagram>
</mxfile>
